<svg width="312" height="128" viewBox="0 0 312 128" fill="none" xmlns="http://www.w3.org/2000/svg">
<path d="M39.0117 67.6534C38.2696 38.289 72.9133 17.6645 103.32 33.7818C113.337 39.0916 121.841 46.9555 130.984 55.5443C131.4 55.9348 131.592 55.8945 131.981 55.5318C146.282 42.1967 166.99 21.863 195.995 29.7742C208.202 33.1035 216.684 40.4289 221.029 51.4671C235.573 88.41 193.854 118.996 158.078 98.7205C149.055 93.6068 141.263 86.5506 132.052 77.8737C131.56 77.4104 131.338 77.476 130.889 77.8954C120.424 87.6562 109.16 98.2661 95.2467 102.708C66.934 111.746 39.7923 96.1405 39.0117 67.6534ZM56.7284 67.0842C57.6311 84.0464 71.7371 91.9539 86.7666 88.947C99.7555 86.3484 110.652 75.7819 119.932 66.9576C120.245 66.6603 120.069 66.5396 119.855 66.354C111.794 59.3946 103.922 50.8935 94.0015 46.5188C74.7738 38.0399 56.6637 50.4744 56.7284 67.0842ZM206.233 66.3673C205.662 49.9745 191.68 41.0413 175.569 44.5369C162.892 47.2872 152.059 57.8037 143.06 66.357C142.747 66.6537 142.867 66.7923 143.123 67.0131C154.376 76.7264 167.654 92.0625 185.595 89.2674C197.545 87.4056 206.26 77.7777 206.233 66.3673Z" fill="#44B3F1"/>
<path d="M26.196 47.636H12.66V40.58H47.868V47.636H34.188V93.5H26.196V47.636ZM77.0848 94.22C72.2848 94.22 67.8448 93.116 63.7648 90.908C59.7328 88.652 56.5168 85.46 54.1168 81.332C51.7168 77.204 50.5168 72.404 50.5168 66.932C50.5168 61.412 51.7168 56.612 54.1168 52.532C56.5168 48.404 59.7328 45.236 63.7648 43.028C67.8448 40.82 72.2848 39.716 77.0848 39.716C81.8848 39.716 86.3008 40.82 90.3328 43.028C94.4128 45.236 97.6528 48.404 100.053 52.532C102.453 56.612 103.653 61.412 103.653 66.932C103.653 72.404 102.453 77.204 100.053 81.332C97.6528 85.46 94.4128 88.652 90.3328 90.908C86.3008 93.116 81.8848 94.22 77.0848 94.22ZM77.0848 86.948C80.3968 86.948 83.4208 86.18 86.1568 84.644C88.8928 83.06 91.0528 80.78 92.6368 77.804C94.2688 74.78 95.0848 71.18 95.0848 67.004C95.0848 62.78 94.2688 59.18 92.6368 56.204C91.0528 53.18 88.8928 50.9 86.1568 49.364C83.4688 47.828 80.4448 47.06 77.0848 47.06C73.7248 47.06 70.6768 47.828 67.9408 49.364C65.2048 50.9 63.0448 53.18 61.4608 56.204C59.8768 59.18 59.0848 62.78 59.0848 67.004C59.0848 71.18 59.9008 74.78 61.5328 77.804C63.1648 80.78 65.3488 83.06 68.0848 84.644C70.8688 86.18 73.8688 86.948 77.0848 86.948ZM112.655 40.58H125.399C136.055 40.58 143.495 43.1 147.719 48.14C151.991 53.18 154.127 59.18 154.127 66.14C154.127 70.988 153.215 75.476 151.391 79.604C149.567 83.684 146.543 87.02 142.319 89.612C138.143 92.204 132.647 93.5 125.831 93.5H112.655V40.58ZM126.695 86.372C133.319 86.372 138.119 84.5 141.095 80.756C144.119 76.964 145.631 72.212 145.631 66.5C145.631 60.932 144.119 56.396 141.095 52.892C138.071 49.388 133.271 47.636 126.695 47.636H120.719V86.372H126.695ZM186.561 94.22C181.761 94.22 177.321 93.116 173.241 90.908C169.209 88.652 165.993 85.46 163.593 81.332C161.193 77.204 159.993 72.404 159.993 66.932C159.993 61.412 161.193 56.612 163.593 52.532C165.993 48.404 169.209 45.236 173.241 43.028C177.321 40.82 181.761 39.716 186.561 39.716C191.361 39.716 195.777 40.82 199.809 43.028C203.889 45.236 207.129 48.404 209.529 52.532C211.929 56.612 213.129 61.412 213.129 66.932C213.129 72.404 211.929 77.204 209.529 81.332C207.129 85.46 203.889 88.652 199.809 90.908C195.777 93.116 191.361 94.22 186.561 94.22ZM186.561 86.948C189.873 86.948 192.897 86.18 195.633 84.644C198.369 83.06 200.529 80.78 202.113 77.804C203.745 74.78 204.561 71.18 204.561 67.004C204.561 62.78 203.745 59.18 202.113 56.204C200.529 53.18 198.369 50.9 195.633 49.364C192.945 47.828 189.921 47.06 186.561 47.06C183.201 47.06 180.153 47.828 177.417 49.364C174.681 50.9 172.521 53.18 170.937 56.204C169.353 59.18 168.561 62.78 168.561 67.004C168.561 71.18 169.377 74.78 171.009 77.804C172.641 80.78 174.825 83.06 177.561 84.644C180.345 86.18 183.345 86.948 186.561 86.948ZM229.98 59.228L230.196 64.988V93.5H222.132V40.508H223.14L254.244 75.212L253.956 69.164V40.58H262.02V93.5H260.94L229.98 59.228ZM273.177 40.58H296.361V47.636H281.169V62.252H293.409V69.452H281.169V86.372H298.737V93.5H273.177V40.58Z" fill="white"/>
</svg>
